<svg width="44" height="45" viewBox="0 0 44 45" fill="none" xmlns="http://www.w3.org/2000/svg">
<path d="M22 0.87207C33.9383 0.87207 43.6666 10.6004 43.6666 22.5387C43.6666 34.4771 33.9383 44.2054 22 44.2054C10.0616 44.2054 0.33329 34.4771 0.33329 22.5387C0.33329 10.6004 10.0616 0.87207 22 0.87207ZM18.1216 29.0387C17.4933 29.6671 17.4933 30.7071 18.1216 31.3354C18.4466 31.6604 18.8583 31.8121 19.27 31.8121C19.6816 31.8121 20.0933 31.6604 20.4183 31.3354L28.0666 23.6871C28.695 23.0587 28.695 22.0187 28.0666 21.3904L20.4183 13.7421C19.79 13.1137 18.75 13.1137 18.1216 13.7421C17.4933 14.3704 17.4933 15.4104 18.1216 16.0387L24.6216 22.5387L18.1216 29.0387Z" fill="#3162DA"/>
</svg>
