<svg width="44" height="45" viewBox="0 0 44 45" fill="none" xmlns="http://www.w3.org/2000/svg">
<path d="M22 0.87207C10.0617 0.87207 0.333374 10.6004 0.333374 22.5387C0.333374 34.4771 10.0617 44.2054 22 44.2054C33.9384 44.2054 43.6667 34.4771 43.6667 22.5387C43.6667 10.6004 33.9384 0.87207 22 0.87207ZM25.8784 29.0387C26.5067 29.6671 26.5067 30.7071 25.8784 31.3354C25.5534 31.6604 25.1417 31.8121 24.73 31.8121C24.3184 31.8121 23.9067 31.6604 23.5817 31.3354L15.9334 23.6871C15.305 23.0587 15.305 22.0187 15.9334 21.3904L23.5817 13.7421C24.21 13.1137 25.25 13.1137 25.8784 13.7421C26.5067 14.3704 26.5067 15.4104 25.8784 16.0387L19.3784 22.5387L25.8784 29.0387Z" fill="#D9D9E9" fill-opacity="0.35"/>
</svg>
