<svg width="52" height="51" viewBox="0 0 52 51" fill="none" xmlns="http://www.w3.org/2000/svg">
<path d="M17.0814 36.1739C16.8631 35.9907 16.7122 35.7271 16.6845 35.4101L15.5622 22.5827C15.5086 21.9698 15.9714 21.4183 16.5843 21.3647C17.1971 21.311 17.7487 21.7739 17.8023 22.3867L18.8266 34.0941L30.5339 33.0698C31.1468 33.0162 31.6983 33.479 31.752 34.0919C31.8056 34.7047 31.3428 35.2562 30.7299 35.3099L17.9025 36.4321C17.5855 36.4599 17.2997 36.3571 17.0814 36.1739Z" fill="white"/>
<path d="M17.2454 35.9786C16.7742 35.5833 16.7114 34.8648 17.1067 34.3937L33.3339 15.0549C33.7292 14.5838 34.4477 14.5209 34.9188 14.9163C35.3899 15.3116 35.4528 16.0301 35.0575 16.5012L18.8303 35.84C18.435 36.3111 17.7165 36.374 17.2454 35.9786Z" fill="white"/>
</svg>
