<svg width="102" height="69" viewBox="0 0 102 69" fill="none" xmlns="http://www.w3.org/2000/svg">
<path d="M98.307 67.4515C98.122 67.4515 97.9411 67.3972 97.7868 67.2953C97.6324 67.1934 97.5114 67.0483 97.4388 66.8782C97.43 66.8593 97.1704 66.2558 96.6463 65.249C96.5303 65.0268 96.5074 64.7676 96.5825 64.5285C96.6577 64.2894 96.8247 64.0899 97.047 63.9739C97.2692 63.858 97.5284 63.835 97.7675 63.9102C98.0066 63.9853 98.2061 64.1524 98.3221 64.3746C98.8966 65.4784 99.1764 66.1348 99.1764 66.1348C99.2379 66.2786 99.2627 66.4354 99.2487 66.5911C99.2347 66.7469 99.1823 66.8967 99.0961 67.0272C99.01 67.1577 98.8928 67.2648 98.755 67.3388C98.6173 67.4129 98.4633 67.4516 98.307 67.4515Z" fill="#3162DA"/>
<path d="M96.6387 65.2487H96.6513C96.5925 65.1391 96.5562 65.0187 96.5447 64.8948C96.5331 64.7709 96.5466 64.6459 96.5842 64.5273C96.6217 64.4086 96.6827 64.2987 96.7635 64.2041C96.8443 64.1094 96.9433 64.0319 97.0545 63.9761C97.5081 63.7367 98.0751 63.9131 98.3271 64.3793C98.4424 64.6032 98.464 64.8637 98.3872 65.1036C98.3104 65.3434 98.1415 65.5429 97.9176 65.6582C97.8067 65.7153 97.6857 65.75 97.5614 65.7603C97.4372 65.7706 97.3121 65.7564 97.1933 65.7183C96.9535 65.6415 96.754 65.4726 96.6387 65.2487ZM95.5677 62.4137C95.2388 62.4137 94.9377 62.2499 94.76 61.9727C94.0935 60.9143 93.3866 59.8559 92.6319 58.8353C92.5153 58.6693 92.4532 58.4712 92.4542 58.2683C92.4542 57.9785 92.5928 57.6887 92.8335 57.5123C93.2493 57.2225 93.8654 57.3107 94.1565 57.7139C94.9377 58.7723 95.6811 59.8685 96.3615 60.9647C96.6387 61.4057 96.5127 61.9979 96.0717 62.2751C95.9187 62.3646 95.7449 62.4123 95.5677 62.4137ZM90.9939 56.2019C90.8595 56.2011 90.7268 56.1714 90.6049 56.1149C90.4829 56.0584 90.3745 55.9763 90.287 55.8743C89.4554 54.9041 88.586 53.9717 87.7166 53.1023C87.5289 52.9259 87.4281 52.6865 87.4281 52.4345C87.4281 52.1825 87.5289 51.9431 87.7053 51.7667C88.0581 51.4013 88.6755 51.4013 89.0409 51.7415C89.0409 51.7541 89.0409 51.7541 89.0548 51.7541L89.0913 51.7919C89.9733 52.6739 90.8301 53.6063 91.7121 54.6395C91.8633 54.8033 91.9402 55.0175 91.9402 55.2317C91.9528 55.5215 91.8255 55.7861 91.6113 55.9751C91.4475 56.1137 91.2207 56.2019 90.9939 56.2019ZM85.5242 50.7713C85.31 50.7713 85.0958 50.6957 84.9207 50.5571C83.9379 49.7255 82.9299 48.9569 81.9219 48.2765C81.7924 48.1898 81.6873 48.0712 81.6167 47.9322C81.5461 47.7932 81.5124 47.6385 81.5187 47.4827C81.5187 47.2937 81.5691 47.1173 81.6825 46.9535C81.8291 46.7539 82.0465 46.6179 82.2901 46.5734C82.5338 46.5289 82.7852 46.5792 82.9929 46.7141C84.0652 47.4449 85.1223 48.2513 86.1303 49.0955C86.3571 49.2845 86.4705 49.5491 86.4705 49.8389C86.4682 50.0879 86.3673 50.3258 86.1899 50.5005C86.0126 50.6753 85.7732 50.7727 85.5242 50.7713ZM31.3442 48.9947H30.7281C30.4853 48.9843 30.2555 48.8824 30.0849 48.7094C29.9142 48.5364 29.8154 48.3052 29.8083 48.0623V48.0119C29.8209 47.5079 30.2367 47.1047 30.7533 47.1047H30.8667C32.0259 47.1173 33.2607 47.0543 34.4703 46.9031C34.9743 46.8275 35.4657 47.2055 35.5287 47.7095C35.5413 47.7599 35.5413 47.8103 35.5413 47.8607C35.5344 48.0842 35.4484 48.2981 35.2987 48.4642C35.149 48.6303 34.9452 48.7379 34.7236 48.7679C33.5757 48.9191 32.4417 48.9947 31.3442 48.9947ZM26.9342 48.5537C26.8712 48.5537 26.8082 48.5537 26.7465 48.5285C25.4235 48.2639 24.1257 47.8607 22.9035 47.3441C22.7302 47.275 22.582 47.1548 22.4785 46.9996C22.375 46.8443 22.3211 46.6613 22.3239 46.4747C22.3242 46.3204 22.3624 46.1685 22.4352 46.0324C22.5079 45.8964 22.6131 45.7803 22.7413 45.6944C22.8695 45.6085 23.0168 45.5555 23.1704 45.5399C23.3239 45.5244 23.4789 45.5469 23.6217 45.6053H23.6356L23.6721 45.6179C24.7683 46.0715 25.9401 46.4369 27.1245 46.6889C27.5655 46.7771 27.8805 47.1551 27.8805 47.6087C27.8805 47.6717 27.8805 47.7347 27.8679 47.7977C27.7671 48.2387 27.3765 48.5537 26.9342 48.5537ZM38.375 48.0371C37.9466 48.0371 37.5686 47.7473 37.4565 47.3315C37.4439 47.2559 37.43 47.1803 37.43 47.0921C37.43 46.6637 37.7198 46.2857 38.1369 46.1723C39.2961 45.8699 40.4931 45.4919 41.7027 45.0383H41.7153C42.1941 44.8493 42.7485 45.1139 42.9375 45.5927C42.9753 45.6935 42.9879 45.8069 42.9879 45.9077C43.0005 46.3109 42.7498 46.6637 42.3844 46.8023C41.0866 47.2811 39.8266 47.6843 38.617 47.9993C38.5387 48.024 38.4571 48.0368 38.375 48.0371ZM79.1738 46.4243C79.01 46.4243 78.8588 46.3865 78.7215 46.3109C77.6379 45.7061 76.49 45.1643 75.3321 44.6855C75.1623 44.6114 75.0174 44.49 74.9147 44.3359C74.8119 44.1818 74.7556 44.0013 74.7525 43.8161C74.7559 43.6613 74.7964 43.5096 74.8706 43.3738C74.9448 43.2379 75.0506 43.1219 75.1791 43.0354C75.3075 42.949 75.4548 42.8947 75.6086 42.877C75.7624 42.8594 75.9182 42.879 76.0629 42.9341C77.2473 43.4255 78.4456 44.0051 79.6287 44.6477C79.848 44.7693 80.0106 44.9723 80.0813 45.2128C80.152 45.4533 80.1252 45.712 80.0067 45.9329C79.8429 46.2353 79.5153 46.4243 79.1738 46.4243ZM19.8795 45.6053C19.6961 45.6076 19.5162 45.5549 19.3629 45.4541C18.2806 44.7485 17.2083 43.9169 16.2129 42.9971C16.1164 42.9069 16.0396 42.7975 15.9876 42.6761C15.9355 42.5546 15.9093 42.4237 15.9105 42.2915C15.9105 42.0521 15.9987 41.8253 16.1625 41.6615C16.4901 41.2835 17.1201 41.2583 17.4855 41.5985C18.4179 42.4553 19.402 43.2239 20.3974 43.8791C20.662 44.0429 20.8258 44.3453 20.8258 44.6603C20.8258 44.8493 20.7754 45.0257 20.6746 45.1895C20.5862 45.3186 20.4674 45.4239 20.3288 45.4964C20.1902 45.5689 20.0359 45.6063 19.8795 45.6053ZM45.62 45.4289C45.242 45.4289 44.8766 45.1895 44.7393 44.8241C44.7015 44.7233 44.6889 44.6099 44.675 44.4965C44.675 44.1059 44.9144 43.7405 45.2924 43.6019C46.5272 43.1231 47.7746 42.6947 48.9842 42.3293V42.3167C49.4769 42.1655 50.0174 42.4553 50.1686 42.9467C50.2064 43.0475 50.219 43.1357 50.219 43.2239C50.2064 43.6397 49.9418 44.0051 49.5512 44.1311C48.3681 44.4839 47.1698 44.9123 45.9602 45.3659C45.8516 45.4075 45.7363 45.4289 45.62 45.4289ZM72.0687 43.4885C71.9805 43.4885 71.8923 43.4759 71.8041 43.4507C70.5945 43.0979 69.3723 42.8207 68.1501 42.6065C67.9269 42.5693 67.7244 42.4537 67.5789 42.2805C67.4333 42.1072 67.3544 41.8878 67.3563 41.6615C67.3702 41.6111 67.3702 41.5607 67.3702 41.5103C67.4697 41.0063 67.9498 40.6535 68.4651 40.7417C69.7516 40.9685 71.0494 41.2583 72.322 41.6237C72.7252 41.7497 73.0024 42.1025 73.015 42.5183C73.018 42.7724 72.92 43.0173 72.7426 43.1992C72.5652 43.3811 72.3228 43.4852 72.0687 43.4885ZM52.9923 43.1735C52.7789 43.1738 52.5717 43.1017 52.4046 42.969C52.2375 42.8362 52.1204 42.6507 52.0725 42.4427C52.0599 42.3797 52.0473 42.3167 52.0473 42.2537C52.0423 42.0344 52.1137 41.8202 52.2493 41.6477C52.385 41.4753 52.5764 41.3555 52.7907 41.3087C54.1137 41.0063 55.4241 40.7795 56.6589 40.6031C57.1881 40.5401 57.6543 40.9055 57.7299 41.4095V41.5607C57.7299 42.0143 57.3771 42.4175 56.9109 42.4805C55.7013 42.6443 54.4552 42.8711 53.2078 43.1483C53.1296 43.1735 53.0679 43.1735 52.9923 43.1735ZM64.4835 42.1781H64.4192C63.2361 42.1025 61.9257 42.0899 60.6657 42.1403H60.6279C60.3837 42.1405 60.1489 42.0462 59.9727 41.877C59.7965 41.7079 59.6927 41.4771 59.6829 41.2331V41.1827C59.6829 40.6913 60.0861 40.2755 60.5901 40.2503C61.9005 40.1999 63.2374 40.2125 64.5352 40.2881C65.0379 40.3259 65.4298 40.7417 65.4298 41.2457V41.2961C65.4103 41.5346 65.3025 41.7572 65.1275 41.9204C64.9524 42.0835 64.7228 42.1755 64.4835 42.1781ZM14.2095 40.4393C13.9323 40.4393 13.6677 40.3133 13.4913 40.1117C13.4913 40.0991 13.4787 40.0991 13.4787 40.0991C13.4631 40.0848 13.4503 40.0677 13.4409 40.0487C12.6163 39.0409 11.8466 37.9894 11.1351 36.8987C11.029 36.7433 10.9764 36.5575 10.9852 36.3695C10.9852 36.0545 11.149 35.7647 11.4136 35.6009C11.6246 35.4698 11.8777 35.4242 12.1212 35.4734C12.3648 35.5225 12.5803 35.6628 12.724 35.8655C13.417 36.9491 14.1717 37.9571 14.9416 38.8895C15.0802 39.0659 15.1558 39.2801 15.1558 39.4943C15.1558 39.7715 15.0298 40.0361 14.8156 40.2251C14.643 40.3619 14.4297 40.4373 14.2095 40.4393ZM9.9633 34.0133C9.6105 34.0133 9.2955 33.8117 9.1317 33.5093C8.51619 32.3513 7.945 31.1702 7.41936 29.9687C7.31981 29.7397 7.31405 29.4807 7.40335 29.2475C7.49264 29.0142 7.66984 28.8253 7.8969 28.7213C8.3757 28.5197 8.94271 28.7465 9.1443 29.2127C9.6735 30.4097 10.2266 31.5563 10.7949 32.6147C10.8075 32.6273 10.8075 32.6273 10.8075 32.6399C10.8705 32.7785 10.9083 32.9171 10.9083 33.0683C10.9083 33.4211 10.7206 33.7361 10.4056 33.8999C10.2705 33.9754 10.1181 34.0145 9.9633 34.0133ZM6.8385 26.9573C6.64591 26.9573 6.45798 26.8981 6.3002 26.7876C6.14242 26.6772 6.02243 26.5209 5.9565 26.3399C5.50382 25.1165 5.08367 23.8812 4.6965 22.6355C4.67095 22.541 4.65824 22.4436 4.6587 22.3457C4.6587 21.9299 4.9233 21.5771 5.3265 21.4511C5.8053 21.2999 6.3471 21.5771 6.4983 22.0559L6.5109 22.0685C6.5109 22.0937 6.52476 22.1189 6.52476 22.1315C6.9267 23.4041 7.31856 24.5633 7.7205 25.6721L7.73436 25.6847C7.8128 25.9206 7.79771 26.1776 7.69221 26.4026C7.5867 26.6277 7.39884 26.8037 7.16736 26.8943C7.06229 26.9344 6.95097 26.9558 6.8385 26.9573ZM4.5453 19.5863C4.1169 19.5863 3.7389 19.2965 3.6381 18.8681C3.30924 17.6459 3.0081 16.3607 2.72964 15.0755C2.71704 15.0125 2.70444 14.9495 2.70444 14.8865C2.70444 14.4455 3.01944 14.0423 3.44784 13.9541C3.96444 13.8407 4.46844 14.1809 4.58184 14.6849C4.83258 15.8819 5.13498 17.1293 5.46258 18.4019V18.4145C5.49291 18.5337 5.49935 18.6576 5.48151 18.7793C5.46368 18.9009 5.42192 19.0179 5.35867 19.1233C5.29541 19.2287 5.2119 19.3206 5.11295 19.3936C5.01401 19.4665 4.90159 19.5192 4.78218 19.5485C4.70569 19.5734 4.62576 19.5862 4.5453 19.5863ZM2.9073 12.0263C2.6899 12.0273 2.47898 11.9523 2.31103 11.8142C2.14307 11.6762 2.02863 11.4838 1.9875 11.2703C1.9875 11.2703 1.9749 11.2577 1.9749 11.2451V11.1821C1.7355 9.88431 1.5339 8.61171 1.3701 7.40211C1.3701 7.35171 1.3575 7.30131 1.3575 7.25091C1.3701 6.79731 1.7229 6.39411 2.1765 6.33111C2.67924 6.25551 3.1719 6.63351 3.2475 7.13751C3.3987 8.28411 3.6003 9.55671 3.8397 10.9175C3.8826 11.1645 3.82597 11.4185 3.68218 11.6239C3.5384 11.8293 3.31916 11.9695 3.07236 12.0137C3.0207 12.0263 2.9577 12.0263 2.9073 12.0263ZM1.8489 4.37811C1.61358 4.38097 1.38604 4.29389 1.21275 4.13466C1.03947 3.97542 0.933503 3.75604 0.916504 3.52131C0.903904 3.50871 0.903904 3.49611 0.903904 3.48351C0.882592 3.23532 0.958835 2.98859 1.11645 2.79569C1.27406 2.60279 1.50064 2.4789 1.7481 2.45031C2.2899 2.39991 2.72964 2.77791 2.78004 3.28191C2.78004 3.29451 2.7939 3.31971 2.7939 3.33231V3.43311C2.7939 3.92451 2.4285 4.32771 1.93584 4.36551C1.9119 4.37811 1.8867 4.37811 1.8489 4.37811Z" fill="#3162DA"/>
<path d="M1.84445 4.33163C1.61006 4.33118 1.3842 4.24364 1.21073 4.086C1.03726 3.92837 0.928566 3.71189 0.905752 3.47861C0.840985 2.8408 0.787636 2.20188 0.745732 1.56215C0.731196 1.31186 0.816684 1.06604 0.983391 0.878774C1.1501 0.69151 1.38437 0.57814 1.63466 0.563603C1.88496 0.549067 2.13078 0.634555 2.31804 0.801262C2.50531 0.967968 2.61868 1.20224 2.63321 1.45253C2.63321 1.46387 2.67227 2.13041 2.78567 3.29465C2.79871 3.42598 2.78406 3.55858 2.74267 3.6839C2.70127 3.80921 2.63406 3.92445 2.54536 4.02217C2.45666 4.11989 2.34845 4.19793 2.22772 4.25123C2.10699 4.30454 1.97643 4.33193 1.84445 4.33163ZM98.809 68.9759C98.6168 68.9761 98.4291 68.9176 98.271 68.8083L90.1881 63.2165C90.0861 63.1458 89.999 63.0558 89.9318 62.9514C89.8646 62.8471 89.8186 62.7306 89.7964 62.6085C89.7742 62.4864 89.7763 62.3612 89.8026 62.2399C89.8288 62.1186 89.8787 62.0037 89.9493 61.9017C90.02 61.7996 90.11 61.7126 90.2143 61.6453C90.3186 61.5781 90.4352 61.5321 90.5573 61.51C90.6794 61.4878 90.8046 61.4899 90.9259 61.5161C91.0472 61.5424 91.1621 61.5922 91.2641 61.6629L98.1059 66.3954L99.3785 58.1462C99.3943 58.0209 99.435 57.9001 99.4983 57.7908C99.5616 57.6815 99.6461 57.586 99.7469 57.5099C99.8477 57.4339 99.9627 57.3788 100.085 57.3479C100.208 57.3171 100.335 57.311 100.46 57.3302C100.585 57.3494 100.704 57.3935 100.812 57.4597C100.919 57.526 101.012 57.6131 101.086 57.7159C101.159 57.8188 101.211 57.9353 101.238 58.0585C101.266 58.1818 101.268 58.3093 101.246 58.4335L99.7439 68.1746C99.7096 68.3978 99.5964 68.6014 99.4249 68.7484C99.2534 68.8954 99.0349 68.9761 98.809 68.9759Z" fill="#3162DA"/>
</svg>
