<svg width="16" height="19" viewBox="0 0 16 19" fill="none" xmlns="http://www.w3.org/2000/svg">
<path d="M15.7003 16.2181L9.44742 9.48053L15.7003 2.74297C16.0999 2.31228 16.0999 1.61405 15.7002 1.18344C15.3006 0.752753 14.6525 0.752753 14.2528 1.18344L8.00002 7.92092L1.74718 1.18337C1.34755 0.75268 0.699479 0.75268 0.299777 1.18337C-0.0999256 1.61405 -0.0999256 2.31228 0.299777 2.74297L6.55262 9.48053L0.299777 16.2181C-0.0999256 16.6488 -0.0999256 17.347 0.299777 17.7777C0.499628 17.993 0.761571 18.1007 1.02344 18.1007C1.28539 18.1007 1.54733 17.993 1.74718 17.7777L8.00002 11.0401L14.2529 17.7777C14.4527 17.993 14.7147 18.1007 14.9766 18.1007C15.2385 18.1007 15.5005 17.993 15.7003 17.7777C16.1 17.347 16.1 16.6488 15.7003 16.2181Z" fill="#040404"/>
</svg>
