<svg width="17" height="18" viewBox="0 0 17 18" fill="none" xmlns="http://www.w3.org/2000/svg">
<path d="M15.5644 13.2853C16.3741 11.9662 16.8017 10.4481 16.7996 8.90022C16.8018 7.35229 16.3741 5.83397 15.5644 4.51473L15.5599 4.50737C14.8086 3.28292 13.7559 2.27158 12.5024 1.56999C11.2488 0.868397 9.8363 0.5 8.39977 0.5C6.96324 0.5 5.55071 0.868397 4.29716 1.56999C3.04361 2.27158 1.99092 3.28292 1.23969 4.50737L1.23516 4.51473C0.427434 5.83485 0 7.35241 0 8.90003C0 10.4477 0.427434 11.9652 1.23516 13.2853L1.23988 13.2929C1.99113 14.5173 3.04383 15.5286 4.29737 16.2301C5.55091 16.9317 6.96342 17.3 8.39992 17.3C9.83642 17.3 11.2489 16.9316 12.5024 16.23C13.756 15.5284 14.8086 14.5171 15.5599 13.2927L15.5644 13.2853ZM9.47344 15.8602C9.31335 16.0147 9.12908 16.142 8.92793 16.237C8.76287 16.3154 8.58242 16.3561 8.39968 16.3561C8.21694 16.3561 8.03649 16.3154 7.87143 16.237C7.48873 16.0415 7.16113 15.7532 6.91856 15.3985C6.42322 14.6826 6.05615 13.8861 5.83376 13.0445C6.68821 12.9919 7.54355 12.9651 8.39977 12.9641C9.25561 12.9641 10.111 12.9909 10.966 13.0445C10.8428 13.4772 10.6891 13.9006 10.5058 14.3114C10.2644 14.8893 9.91392 15.4151 9.47344 15.8602ZM0.960137 9.37193H4.34821C4.37029 10.3173 4.47278 11.2591 4.65457 12.1871C3.72838 12.2687 2.80458 12.3807 1.88318 12.5231C1.34356 11.555 1.02812 10.4782 0.960137 9.37193ZM1.88318 5.27714C2.80421 5.41984 3.72832 5.53184 4.65551 5.61314C4.4734 6.54104 4.37072 7.48278 4.34858 8.42813H0.960137C1.02815 7.32196 1.34358 6.24516 1.88318 5.27714ZM7.3261 1.93985C7.48619 1.78536 7.67046 1.65809 7.87162 1.56308C8.03668 1.48466 8.21712 1.44397 8.39987 1.44397C8.58261 1.44397 8.76306 1.48466 8.92811 1.56308C9.31082 1.75855 9.63842 2.04683 9.88098 2.40156C10.3763 3.11741 10.7434 3.91396 10.9658 4.75559C10.1113 4.8082 9.25599 4.835 8.39977 4.83601C7.54393 4.83601 6.68853 4.8092 5.83357 4.75559C5.95669 4.32288 6.11048 3.89949 6.29377 3.48863C6.53512 2.91081 6.88563 2.38495 7.3261 1.93985ZM15.8394 8.42813H12.4513C12.4293 7.48274 12.3268 6.54095 12.145 5.61295C13.0712 5.5314 13.995 5.4194 14.9164 5.27695C15.456 6.24503 15.7714 7.3219 15.8394 8.42813ZM5.60385 12.1137C5.41929 11.2108 5.31507 10.2933 5.29239 9.37193H11.5073C11.4849 10.2933 11.3808 11.2109 11.1965 12.1139C10.2652 12.0527 9.33301 12.0215 8.39977 12.0202C7.46729 12.0202 6.53532 12.0514 5.60385 12.1137ZM11.1957 5.68637C11.3802 6.58931 11.4845 7.50681 11.5072 8.42813H5.29239C5.31485 7.50676 5.41889 6.58919 5.60328 5.68619C6.5345 5.74734 7.46673 5.77855 8.39996 5.77981C9.33244 5.77981 10.2644 5.7486 11.1959 5.68619L11.1957 5.68637ZM12.451 9.37193H15.8394C15.7714 10.4781 15.456 11.5549 14.9164 12.5229C13.9952 12.3802 13.0711 12.2682 12.144 12.1869C12.3261 11.259 12.4288 10.3173 12.451 9.37193ZM14.3505 4.40846C13.5451 4.52461 12.7374 4.6166 11.9273 4.68443C11.7818 4.14232 11.594 3.61242 11.3658 3.09959C11.1574 2.6277 10.8951 2.18147 10.5843 1.76977C12.0864 2.23047 13.4045 3.15399 14.3505 4.40846ZM3.12768 3.62775C3.98936 2.76524 5.04946 2.12728 6.21505 1.76977C6.19731 1.7928 6.17919 1.8147 6.16182 1.83792C5.56269 2.70035 5.12628 3.66504 4.8741 4.68443C4.06393 4.61585 3.25566 4.52386 2.44927 4.40846C2.65722 4.13296 2.88389 3.8721 3.12768 3.62775ZM2.44927 13.3916C3.25453 13.2754 4.06223 13.1835 4.8724 13.1156C5.01797 13.6577 5.20573 14.1876 5.43396 14.7005C5.64237 15.1724 5.9046 15.6186 6.21543 16.0303C4.71334 15.5696 3.39522 14.6461 2.44927 13.3916ZM13.6722 14.1723C12.8106 15.0348 11.7505 15.6728 10.5849 16.0303C10.6026 16.0073 10.6207 15.9854 10.6381 15.9621C11.2372 15.0997 11.6736 14.135 11.9258 13.1156C12.736 13.1842 13.5443 13.2762 14.3507 13.3916C14.1427 13.6671 13.916 13.928 13.6722 14.1723Z" fill="white"/>
</svg>
